<svg width="107" height="104" viewBox="0 0 107 104" fill="none" xmlns="http://www.w3.org/2000/svg">
<g clip-path="url(#clip0_18_2)">
<path d="M3.03925 99.6069L2.55957 102H5.00024H55.4434C64.0432 102 71.734 100.881 78.4865 98.6037C85.2799 96.3124 90.7055 92.786 94.6496 87.9665C98.7419 82.9866 100.739 76.8499 100.739 69.6914C100.739 62.2249 98.098 56.2902 92.6746 52.1979C91.9085 51.5963 91.1061 51.0411 90.2684 50.5317C94.0589 48.446 97.2376 45.7325 99.7756 42.3842C103.292 37.8671 105 32.3444 105 25.9429C105 18.1948 101.913 12.1117 95.7365 7.96625C89.7669 3.89871 81.3329 2 70.7001 2H24.2428H22.6039L22.2818 3.60693L3.03925 99.6069ZM32.9998 81.2686L36.9017 61.5429H62.1783C66.371 61.5429 69.4479 62.2884 71.5881 63.5849L71.6235 63.6064L71.6598 63.6263C73.5544 64.6693 74.6103 66.4271 74.6103 69.4172C74.6103 73.3689 73.1182 76.1931 70.1471 78.1715C67.1116 80.1621 62.7381 81.2686 56.8179 81.2686H32.9998ZM61.0787 41.36H40.894L44.5788 22.7314H65.4771C69.7927 22.7314 72.8663 23.4418 74.9051 24.6473L74.9291 24.6615L74.9534 24.6749C76.6965 25.6412 77.6341 27.1942 77.6341 29.7829C77.6341 32.3508 76.9987 34.4465 75.8063 36.1647C74.624 37.7787 72.8401 39.0694 70.3075 39.9661L70.2976 39.9696L70.2878 39.9732C67.8161 40.8775 64.7625 41.36 61.0787 41.36Z" fill="#92C840" stroke="white" stroke-width="4"/>
</g>
<defs>
<clipPath id="clip0_18_2">
<rect width="107" height="104" fill="white"/>
</clipPath>
</defs>
</svg>
