<svg width="637" height="800" viewBox="0 0 637 800" fill="none" xmlns="http://www.w3.org/2000/svg">
<g clip-path="url(#clip0_475_203)">
<path d="M61.3249 739.722L39.3589 741.186L42.2879 511.277H96.4699L61.3249 739.722Z" fill="#F8AEB8"/>
<path d="M166.761 739.722L144.795 741.186L147.724 511.277L182.767 511.286L166.761 739.722Z" fill="#F8AEB8"/>
<path d="M190.191 714.828C167.198 725.314 145.586 724.78 125.014 715.942L114.043 452.702L82.6191 713.637C59.6421 719.322 54.7051 725.137 31.2871 720.663C36.6801 681.574 41.4181 437.772 39.3591 394.126L193.12 386.804L190.191 714.828Z" fill="#2F2E41"/>
<path d="M57.396 799.968C54.3679 799.968 51.3718 799.349 48.5916 798.149C45.8114 796.949 43.3058 795.194 41.2288 792.99C39.1518 790.787 37.5473 788.182 36.5136 785.336C35.4799 782.489 35.0391 779.462 35.218 776.439L37.337 740.632C45.87 725.332 56.228 725.271 68.299 739.526L78.518 770.863C79.6047 774.198 79.8863 777.743 79.3398 781.207C78.7934 784.672 77.4344 787.958 75.374 790.797C73.3137 793.635 70.6106 795.946 67.4858 797.539C64.3611 799.132 60.9035 799.963 57.396 799.963V799.968Z" fill="#2F2E41"/>
<path d="M161.368 799.968C158.34 799.968 155.344 799.349 152.563 798.149C149.783 796.949 147.278 795.194 145.201 792.99C143.124 790.787 141.519 788.182 140.486 785.336C139.452 782.489 139.011 779.462 139.19 776.439L141.309 740.632C149.842 725.332 160.2 725.271 172.271 739.526L182.49 770.863C183.577 774.198 183.858 777.743 183.312 781.207C182.765 784.672 181.406 787.958 179.346 790.797C177.286 793.635 174.582 795.946 171.458 797.539C168.333 799.132 164.875 799.963 161.368 799.963V799.968Z" fill="#2F2E41"/>
<path d="M131.615 102.71C155.069 102.71 174.082 83.6969 174.082 60.243C174.082 36.7891 155.069 17.776 131.615 17.776C108.161 17.776 89.1479 36.7891 89.1479 60.243C89.1479 83.6969 108.161 102.71 131.615 102.71Z" fill="#F8AEB8"/>
<path d="M130.154 140.787L61.324 112.967C77.795 104.893 88.979 89.889 97.934 71.967H128.686C127.219 99.312 126.038 126.019 130.154 140.787Z" fill="#F8AEB8"/>
<path d="M197.513 397.055L33.5009 401.448C35.5009 322.694 31.9939 241.659 23.7719 158.668C22.8497 149.312 25.0442 139.914 30.0143 131.934C34.9843 123.955 42.4515 117.84 51.2549 114.542L67.1819 108.569L131.615 126.142L162.024 149.456C166.098 152.59 169.333 156.684 171.44 161.372C173.546 166.061 174.459 171.198 174.097 176.325C169.493 243.558 179.773 318.399 197.513 397.055Z" fill="#B8E954"/>
<path d="M215.796 452.521C211.43 452.774 207.133 451.343 203.791 448.521C200.449 445.7 198.317 441.704 197.834 437.357L194.209 404.713L213.584 399.313L229.584 426.904C231.047 429.427 231.84 432.284 231.886 435.2C231.933 438.117 231.231 440.997 229.849 443.566C228.466 446.134 226.449 448.306 223.989 449.874C221.529 451.441 218.708 452.353 215.796 452.521Z" fill="#F8AEB8"/>
<path d="M232.658 407.306L194.584 408.77L165.296 291.619L157.974 146.644C164.676 147.481 170.908 150.526 175.687 155.298C180.466 160.071 183.519 166.299 184.366 172.999L197.512 276.975L232.658 407.306Z" fill="#B8E954"/>
<path opacity="0.2" d="M51.8058 189.844L50.3418 286.494L114.775 394.859L57.6638 283.565L51.8058 189.844Z" fill="black"/>
<path opacity="0.2" d="M32.365 335.821L70.555 401.448L57.021 400.716L32.365 335.821Z" fill="black"/>
<path d="M167.65 13.636L168.122 20.717L164.476 10.994C155.306 4.32847 144.346 0.570185 133.015 0.20604C126.284 -0.464484 119.49 0.512174 113.22 3.05184C106.951 5.5915 101.393 9.61795 97.0254 14.784C92.6583 19.9501 89.6131 26.1008 88.1524 32.7059C86.6918 39.311 86.8595 46.1722 88.641 52.698L89.148 58.782L100.863 42.674C106.139 37.8903 112.565 34.5563 119.514 32.9976C126.463 31.439 133.697 31.7089 140.511 33.781C145.63 35.3429 150.552 37.4877 155.181 40.173C162.245 44.4038 168.619 49.6918 174.081 55.853L175.099 48.933C181.94 36.066 177.869 23.005 167.65 13.636Z" fill="#2F2E41"/>
<path d="M620.807 417.826H72.8069C63.9703 417.826 56.8069 424.989 56.8069 433.826V751.826C56.8069 760.663 63.9703 767.826 72.8069 767.826H620.807C629.643 767.826 636.807 760.663 636.807 751.826V433.826C636.807 424.989 629.643 417.826 620.807 417.826Z" fill="#D6D6E3"/>
<path d="M615.807 421.826H77.8069C69.5226 421.826 62.8069 428.542 62.8069 436.826V746.826C62.8069 755.11 69.5226 761.826 77.8069 761.826H615.807C624.091 761.826 630.807 755.11 630.807 746.826V436.826C630.807 428.542 624.091 421.826 615.807 421.826Z" fill="white"/>
<path d="M535.792 742.048C536.371 742.074 536.943 741.921 537.432 741.611C537.922 741.301 538.304 740.848 538.527 740.314C538.751 739.779 538.805 739.189 538.683 738.623C538.56 738.057 538.267 737.542 537.842 737.148L537.648 736.377L537.725 736.192C538.31 734.815 539.288 733.641 540.538 732.818C541.787 731.994 543.252 731.558 544.748 731.563C546.244 731.569 547.706 732.016 548.949 732.849C550.192 733.681 551.162 734.862 551.737 736.244C554.029 741.764 556.946 747.293 557.665 753.129C557.982 755.709 557.848 758.324 557.271 760.858C562.655 749.117 565.452 736.355 565.471 723.438C565.472 720.197 565.292 716.959 564.932 713.738C564.634 711.097 564.221 708.475 563.692 705.872C560.807 691.748 554.613 678.509 545.618 667.244C541.264 664.869 537.743 661.216 535.53 656.778C534.728 655.183 534.161 653.48 533.847 651.722C534.338 651.786 535.699 644.307 535.328 643.848C536.012 642.809 537.237 642.293 537.985 641.28C541.702 636.24 546.824 637.12 549.498 643.969C555.21 646.852 555.265 651.632 551.76 656.23C549.53 659.155 549.224 663.113 547.268 666.245C547.468 666.503 547.679 666.752 547.88 667.01C551.559 671.741 554.766 676.821 557.454 682.178C556.8 676.177 557.58 670.107 559.73 664.466C561.909 659.209 565.993 654.782 569.59 650.238C573.91 644.779 582.769 647.162 583.53 654.081C583.537 654.148 583.545 654.214 583.552 654.281C583.019 654.582 582.496 654.902 581.983 655.241C581.34 655.671 580.842 656.284 580.555 657.001C580.267 657.719 580.202 658.506 580.369 659.261C580.536 660.016 580.928 660.702 581.492 661.231C582.056 661.759 582.766 662.105 583.53 662.223L583.608 662.235C583.418 664.16 583.081 666.069 582.602 667.943C587.216 685.787 577.255 692.286 563.031 692.578C562.717 692.739 562.411 692.9 562.097 693.053C564.798 700.707 566.492 708.68 567.137 716.771C567.502 721.545 567.48 726.34 567.072 731.11L567.096 730.941C568.127 725.637 570.956 720.851 575.107 717.392C581.272 712.328 589.981 710.463 596.631 706.392C597.337 705.937 598.16 705.693 599 705.69C599.841 705.687 600.665 705.925 601.374 706.376C602.084 706.827 602.649 707.471 603.004 708.233C603.359 708.995 603.488 709.843 603.376 710.676C603.367 710.735 603.358 710.795 603.349 710.854C602.358 711.258 601.392 711.723 600.459 712.247C599.926 712.548 599.403 712.868 598.89 713.207C598.247 713.637 597.749 714.25 597.461 714.967C597.174 715.685 597.109 716.472 597.276 717.227C597.443 717.982 597.835 718.668 598.399 719.197C598.963 719.725 599.673 720.071 600.437 720.189L600.515 720.201L600.676 720.225C598.982 724.269 596.605 727.992 593.648 731.23C590.763 746.807 578.371 748.285 565.116 743.749H565.108C563.653 750.069 561.546 756.221 558.82 762.105H536.359C536.278 761.856 536.206 761.598 536.134 761.348C538.213 761.479 540.3 761.355 542.349 760.978C540.683 758.933 539.016 756.872 537.349 754.827C537.313 754.789 537.28 754.748 537.249 754.706C536.404 753.659 535.549 752.621 534.705 751.574C534.661 748.366 535.031 745.165 535.805 742.051L535.792 742.048Z" fill="#F2F2F2"/>
<path d="M589.619 487.789H90.5589C90.4407 487.793 90.323 487.773 90.2127 487.731C90.1024 487.688 90.0018 487.624 89.9168 487.542C89.8319 487.46 89.7643 487.361 89.7181 487.253C89.672 487.144 89.6482 487.027 89.6482 486.909C89.6482 486.79 89.672 486.673 89.7181 486.565C89.7643 486.456 89.8319 486.357 89.9168 486.275C90.0018 486.193 90.1024 486.129 90.2127 486.086C90.323 486.044 90.4407 486.024 90.5589 486.028H589.619C589.737 486.024 589.855 486.044 589.965 486.086C590.075 486.129 590.176 486.193 590.261 486.275C590.346 486.357 590.413 486.456 590.46 486.565C590.506 486.673 590.53 486.79 590.53 486.909C590.53 487.027 590.506 487.144 590.46 487.253C590.413 487.361 590.346 487.46 590.261 487.542C590.176 487.624 590.075 487.688 589.965 487.731C589.855 487.773 589.737 487.793 589.619 487.789Z" fill="#E6E6E6"/>
<path d="M486.523 607.688H191.693C189.277 607.688 186.96 608.648 185.252 610.356C183.544 612.064 182.584 614.381 182.584 616.797C182.584 619.213 183.544 621.53 185.252 623.238C186.96 624.946 189.277 625.906 191.693 625.906H486.523C488.939 625.906 491.256 624.946 492.964 623.238C494.672 621.53 495.632 619.213 495.632 616.797C495.632 614.381 494.672 612.064 492.964 610.356C491.256 608.648 488.939 607.688 486.523 607.688Z" fill="#E6E6E6"/>
<path d="M389.661 556.613H298.245C295.829 556.613 293.512 557.573 291.804 559.281C290.095 560.989 289.136 563.306 289.136 565.722C289.136 568.138 290.095 570.455 291.804 572.163C293.512 573.871 295.829 574.831 298.245 574.831H389.661C392.077 574.831 394.394 573.871 396.102 572.163C397.81 570.455 398.77 568.138 398.77 565.722C398.77 563.306 397.81 560.989 396.102 559.281C394.394 557.573 392.077 556.613 389.661 556.613Z" fill="#3F3D56"/>
<path d="M115.528 461.354C119.641 461.354 122.975 457.946 122.975 453.741C122.975 449.537 119.641 446.128 115.528 446.128C111.415 446.128 108.081 449.537 108.081 453.741C108.081 457.946 111.415 461.354 115.528 461.354Z" fill="#D6D6E3"/>
<path d="M141.253 461.354C145.366 461.354 148.7 457.946 148.7 453.741C148.7 449.537 145.366 446.128 141.253 446.128C137.14 446.128 133.806 449.537 133.806 453.741C133.806 457.946 137.14 461.354 141.253 461.354Z" fill="#D6D6E3"/>
<path d="M166.979 461.354C171.092 461.354 174.426 457.946 174.426 453.741C174.426 449.537 171.092 446.128 166.979 446.128C162.866 446.128 159.532 449.537 159.532 453.741C159.532 457.946 162.866 461.354 166.979 461.354Z" fill="#D6D6E3"/>
<path d="M196.312 459.757C196.195 459.757 196.079 459.734 195.97 459.688C195.862 459.643 195.765 459.576 195.683 459.492L190.658 454.355C190.497 454.191 190.407 453.97 190.407 453.74C190.407 453.509 190.497 453.289 190.658 453.124L195.683 447.988C195.762 447.9 195.859 447.83 195.966 447.78C196.074 447.731 196.19 447.703 196.309 447.7C196.427 447.696 196.545 447.717 196.655 447.76C196.766 447.803 196.866 447.868 196.951 447.95C197.036 448.033 197.103 448.132 197.148 448.242C197.194 448.351 197.217 448.468 197.216 448.587C197.215 448.705 197.19 448.822 197.143 448.931C197.096 449.039 197.028 449.138 196.942 449.219L192.52 453.739L196.942 458.26C197.064 458.384 197.147 458.541 197.18 458.712C197.213 458.883 197.195 459.06 197.127 459.22C197.06 459.381 196.946 459.518 196.801 459.614C196.656 459.71 196.486 459.761 196.312 459.76V459.757Z" fill="#B8E954"/>
<path d="M204.756 459.757C204.582 459.757 204.412 459.706 204.267 459.61C204.122 459.514 204.009 459.377 203.941 459.217C203.874 459.056 203.856 458.88 203.889 458.709C203.922 458.538 204.005 458.381 204.127 458.257L208.549 453.736L204.127 449.216C204.041 449.134 203.973 449.036 203.925 448.928C203.878 448.819 203.854 448.702 203.853 448.584C203.852 448.465 203.875 448.348 203.921 448.239C203.966 448.129 204.033 448.03 204.118 447.947C204.203 447.865 204.303 447.8 204.413 447.757C204.524 447.714 204.642 447.693 204.76 447.697C204.878 447.7 204.995 447.728 205.102 447.777C205.21 447.827 205.306 447.897 205.386 447.985L210.41 453.121C210.571 453.285 210.661 453.506 210.661 453.737C210.661 453.967 210.571 454.188 210.41 454.352L205.386 459.488C205.304 459.573 205.206 459.64 205.098 459.686C204.99 459.733 204.874 459.757 204.756 459.757Z" fill="#B8E954"/>
<path d="M545.114 447.009H535.771C535.259 447.009 534.769 447.212 534.407 447.574C534.046 447.935 533.843 448.426 533.843 448.937V458.291C533.843 458.544 533.892 458.795 533.989 459.029C534.086 459.263 534.228 459.476 534.407 459.655C534.586 459.834 534.799 459.976 535.033 460.073C535.267 460.17 535.517 460.22 535.771 460.22H545.114C545.626 460.22 546.117 460.018 546.481 459.656C546.844 459.295 547.049 458.804 547.051 458.292V448.94C547.049 448.428 546.844 447.937 546.481 447.575C546.118 447.214 545.626 447.011 545.114 447.011V447.009Z" fill="#E6E6E6"/>
<path d="M522.219 447.009H512.876C512.364 447.009 511.874 447.212 511.512 447.574C511.151 447.935 510.948 448.426 510.948 448.937V458.291C510.948 458.544 510.997 458.795 511.094 459.029C511.191 459.263 511.333 459.476 511.512 459.655C511.692 459.834 511.904 459.977 512.138 460.073C512.373 460.17 512.623 460.22 512.877 460.22H522.22C522.732 460.22 523.223 460.018 523.587 459.656C523.95 459.295 524.155 458.804 524.157 458.292V448.94C524.155 448.428 523.95 447.937 523.587 447.575C523.224 447.214 522.732 447.011 522.22 447.011L522.219 447.009Z" fill="#E6E6E6"/>
<path d="M566.689 447.45H557.346C557.093 447.45 556.842 447.5 556.608 447.597C556.374 447.694 556.161 447.836 555.982 448.015C555.803 448.194 555.661 448.407 555.564 448.641C555.468 448.875 555.418 449.126 555.418 449.379V458.732C555.418 458.985 555.468 459.236 555.565 459.47C555.662 459.704 555.804 459.917 555.983 460.096C556.162 460.275 556.375 460.417 556.609 460.514C556.843 460.61 557.094 460.66 557.347 460.66H566.69C567.202 460.661 567.694 460.458 568.057 460.097C568.42 459.735 568.625 459.244 568.627 458.732V449.38C568.625 448.868 568.421 448.377 568.057 448.015C567.694 447.653 567.202 447.451 566.69 447.451L566.689 447.45Z" fill="#B8E954"/>
<path d="M377.434 451.007H302.747C302.433 450.998 302.12 451.052 301.826 451.166C301.533 451.28 301.266 451.451 301.04 451.671C300.815 451.89 300.635 452.152 300.513 452.442C300.39 452.731 300.327 453.043 300.327 453.357C300.327 453.672 300.39 453.983 300.513 454.273C300.635 454.562 300.815 454.824 301.04 455.044C301.266 455.263 301.533 455.434 301.826 455.548C302.12 455.662 302.433 455.716 302.747 455.707H377.434C377.748 455.716 378.061 455.662 378.354 455.548C378.648 455.434 378.915 455.263 379.141 455.044C379.366 454.824 379.545 454.562 379.668 454.273C379.79 453.983 379.854 453.672 379.854 453.357C379.854 453.043 379.79 452.731 379.668 452.442C379.545 452.152 379.366 451.89 379.141 451.671C378.915 451.451 378.648 451.28 378.354 451.166C378.061 451.052 377.748 450.998 377.434 451.007Z" fill="#B8E954"/>
<path d="M322.658 674.476H248.688C245.068 674.476 241.596 675.914 239.036 678.474C236.476 681.034 235.038 684.506 235.038 688.126C235.038 691.746 236.476 695.218 239.036 697.778C241.596 700.338 245.068 701.776 248.688 701.776H322.658C326.278 701.776 329.75 700.338 332.31 697.778C334.87 695.218 336.308 691.746 336.308 688.126C336.308 684.506 334.87 681.034 332.31 678.474C329.75 675.914 326.278 674.476 322.658 674.476Z" fill="#B8E954"/>
<path d="M446.821 674.476H372.851C369.231 674.476 365.759 675.914 363.199 678.474C360.639 681.034 359.201 684.506 359.201 688.126C359.201 691.746 360.639 695.218 363.199 697.778C365.759 700.338 369.231 701.776 372.851 701.776H446.821C450.441 701.776 453.913 700.338 456.473 697.778C459.033 695.218 460.471 691.746 460.471 688.126C460.471 684.506 459.033 681.034 456.473 678.474C453.913 675.914 450.441 674.476 446.821 674.476Z" fill="white"/>
<path d="M446.821 702.654H372.851C368.997 702.654 365.301 701.123 362.577 698.398C359.852 695.673 358.321 691.978 358.321 688.124C358.321 684.27 359.852 680.575 362.577 677.85C365.301 675.125 368.997 673.594 372.851 673.594H446.821C450.674 673.594 454.37 675.125 457.095 677.85C459.82 680.575 461.351 684.27 461.351 688.124C461.351 691.978 459.82 695.673 457.095 698.398C454.37 701.123 450.674 702.654 446.821 702.654ZM372.851 675.354C371.165 675.339 369.492 675.658 367.93 676.293C366.367 676.928 364.946 677.867 363.749 679.054C362.551 680.241 361.6 681.653 360.952 683.21C360.303 684.767 359.969 686.436 359.969 688.123C359.969 689.809 360.303 691.479 360.952 693.035C361.6 694.592 362.551 696.004 363.749 697.191C364.946 698.379 366.367 699.317 367.93 699.952C369.492 700.587 371.165 700.906 372.851 700.891H446.821C448.507 700.906 450.18 700.587 451.742 699.952C453.304 699.317 454.725 698.379 455.923 697.191C457.121 696.004 458.071 694.592 458.72 693.035C459.369 691.479 459.703 689.809 459.703 688.123C459.703 686.436 459.369 684.767 458.72 683.21C458.071 681.653 457.121 680.241 455.923 679.054C454.725 677.867 453.304 676.928 451.742 676.293C450.18 675.658 448.507 675.339 446.821 675.354H372.851Z" fill="#B8E954"/>
<path d="M110.853 650.245C120.633 641.686 132.891 636.476 145.84 635.373C155.647 634.627 165.487 636.297 174.498 640.237C183.509 644.177 191.417 650.267 197.528 657.973C198.569 659.294 196.712 661.173 195.66 659.841C188.211 650.416 178.032 643.523 166.515 640.106C157.261 637.443 147.486 637.146 138.087 639.243C128.688 641.339 119.966 645.762 112.721 652.106C111.449 653.225 109.574 651.364 110.853 650.238V650.245Z" fill="#3F3D56"/>
<path d="M211.503 647.512L219.29 668.812C219.343 669.008 219.349 669.214 219.31 669.413C219.271 669.612 219.187 669.8 219.064 669.961C218.941 670.122 218.782 670.254 218.601 670.344C218.419 670.435 218.219 670.483 218.016 670.484L193.104 668.709C191.418 668.589 191.404 665.946 193.104 666.067L218.016 667.843L216.742 669.515L208.955 648.215C208.37 646.616 210.922 645.926 211.503 647.512Z" fill="#3F3D56"/>
<path d="M173.155 748.095C172.744 748.116 172.337 748.009 171.989 747.79C171.641 747.57 171.369 747.249 171.21 746.869C171.051 746.49 171.014 746.071 171.102 745.669C171.19 745.267 171.4 744.902 171.703 744.624L171.84 744.078L171.785 743.947C171.372 742.971 170.679 742.139 169.794 741.555C168.91 740.972 167.872 740.662 166.813 740.666C165.753 740.67 164.718 740.987 163.837 741.578C162.957 742.168 162.271 743.005 161.865 743.984C160.242 747.892 158.177 751.806 157.665 755.938C157.441 757.764 157.535 759.616 157.944 761.41C154.134 753.097 152.156 744.062 152.144 734.918C152.143 732.623 152.271 730.33 152.526 728.05C152.736 726.183 153.029 724.327 153.404 722.481C155.448 712.481 159.834 703.109 166.204 695.134C169.286 693.452 171.779 690.866 173.346 687.724C173.913 686.595 174.315 685.389 174.537 684.145C174.189 684.191 173.226 678.895 173.488 678.571C173.004 677.836 172.136 677.471 171.607 676.753C168.975 673.185 165.349 673.808 163.456 678.653C159.412 680.694 159.373 684.079 161.856 687.334C163.435 689.405 163.656 692.207 165.037 694.425C164.894 694.607 164.746 694.784 164.604 694.967C161.999 698.316 159.729 701.913 157.826 705.705C158.289 701.456 157.736 697.159 156.214 693.165C154.671 689.443 151.78 686.309 149.233 683.092C148.559 682.228 147.645 681.582 146.605 681.237C145.564 680.893 144.445 680.864 143.389 681.155C142.332 681.447 141.386 682.045 140.669 682.874C139.953 683.703 139.498 684.726 139.363 685.813C139.358 685.86 139.353 685.908 139.348 685.955C139.726 686.168 140.096 686.395 140.459 686.634C140.914 686.938 141.267 687.373 141.47 687.881C141.674 688.39 141.72 688.948 141.601 689.482C141.482 690.017 141.204 690.503 140.804 690.876C140.404 691.25 139.9 691.495 139.359 691.577L139.304 691.585C139.439 692.948 139.677 694.299 140.017 695.626C136.751 708.26 143.799 712.86 153.874 713.07C154.096 713.184 154.313 713.298 154.535 713.406C152.623 718.825 151.423 724.47 150.967 730.198C150.709 733.577 150.724 736.972 151.013 740.349L150.996 740.229C150.266 736.474 148.263 733.085 145.325 730.636C140.961 727.051 134.795 725.731 130.086 722.849C129.585 722.528 129.004 722.357 128.409 722.355C127.815 722.354 127.232 722.523 126.73 722.841C126.228 723.16 125.828 723.616 125.577 724.154C125.325 724.693 125.233 725.293 125.311 725.882L125.33 726.008C126.032 726.294 126.715 726.623 127.376 726.994C127.754 727.207 128.124 727.434 128.487 727.673C128.942 727.977 129.295 728.412 129.498 728.92C129.702 729.429 129.748 729.987 129.629 730.521C129.51 731.056 129.232 731.542 128.832 731.915C128.432 732.289 127.928 732.534 127.387 732.616L127.332 732.625L127.218 732.642C128.417 735.505 130.1 738.141 132.194 740.433C134.237 751.461 143.01 752.508 152.394 749.296H152.4C153.429 753.772 154.921 758.129 156.852 762.296H172.752C172.809 762.119 172.86 761.937 172.912 761.76C171.44 761.853 169.962 761.765 168.512 761.498C169.692 760.05 170.872 758.591 172.052 757.143C172.078 757.116 172.103 757.087 172.126 757.057C172.726 756.316 173.326 755.581 173.926 754.84C173.958 752.569 173.697 750.303 173.15 748.098L173.155 748.095Z" fill="#F2F2F2"/>
<path d="M124.799 445.307C120.865 447.218 116.348 447.547 112.178 446.226C108.009 444.905 104.506 442.035 102.39 438.207L86.5029 409.454L102.318 397.028L127.687 416.357C130.007 418.125 131.836 420.457 132.998 423.132C134.161 425.807 134.62 428.735 134.33 431.637C134.041 434.54 133.012 437.319 131.344 439.711C129.675 442.104 127.422 444.029 124.798 445.303L124.799 445.307Z" fill="#F8AEB8"/>
<path d="M114.042 398.519L81.825 416.092L8.60694 290.154L0.168948 179.408C-0.777898 166.982 2.31386 154.582 8.98392 144.055C15.654 133.528 25.5456 125.437 37.1859 120.986L46.6809 117.356L52.5389 284.296L114.042 398.519Z" fill="#B8E954"/>
</g>
<defs>
<clipPath id="clip0_475_203">
<rect width="636.807" height="799.969" fill="white"/>
</clipPath>
</defs>
</svg>
