<svg width="107" height="104" viewBox="0 0 107 104" fill="none" xmlns="http://www.w3.org/2000/svg">
<path d="M2.92011 99.6069L2.44043 102H4.8811H55.3243C63.9241 102 71.6149 100.881 78.3674 98.6037C85.1608 96.3124 90.5864 92.786 94.5305 87.9665C98.6228 82.9866 100.62 76.8499 100.62 69.6914C100.62 62.2249 97.9789 56.2902 92.5555 52.1979C91.7894 51.5963 90.987 51.0411 90.1493 50.5317C93.9398 48.446 97.1185 45.7325 99.6565 42.3842C103.173 37.8671 104.881 32.3444 104.881 25.9429C104.881 18.1948 101.794 12.1117 95.6174 7.96625C89.6478 3.89871 81.2138 2 70.581 2H24.1237H22.4848L22.1627 3.60693L2.92011 99.6069ZM32.8807 81.2686L36.7826 61.5429H62.0592C66.2519 61.5429 69.3288 62.2884 71.469 63.5849L71.5044 63.6064L71.5407 63.6263C73.4353 64.6693 74.4912 66.4271 74.4912 69.4172C74.4912 73.3689 72.9991 76.1931 70.028 78.1715C66.9925 80.1621 62.619 81.2686 56.6988 81.2686H32.8807ZM60.9596 41.36H40.7749L44.4597 22.7314H65.358C69.6736 22.7314 72.7472 23.4418 74.786 24.6473L74.81 24.6615L74.8343 24.6749C76.5774 25.6412 77.515 27.1942 77.515 29.7829C77.515 32.3508 76.8796 34.4465 75.6872 36.1647C74.5049 37.7787 72.721 39.0694 70.1884 39.9661L70.1785 39.9696L70.1687 39.9732C67.697 40.8775 64.6434 41.36 60.9596 41.36Z" fill="#92C840" stroke="#1E1E1E" stroke-width="4"/>
</svg>
